<mxfile host="app.diagrams.net" modified="2024-05-24T14:49:21.515Z" agent="Mozilla/5.0 (Windows NT 10.0; Win64; x64) AppleWebKit/537.36 (KHTML, like Gecko) Chrome/124.0.0.0 Safari/537.36" etag="zxMNAsHoEoLx9qPfHsud" version="24.4.6" type="github">
  <diagram name="Página-1" id="wv0_I9xYi8dKAA7470HY">
    <mxGraphModel dx="794" dy="420" grid="1" gridSize="10" guides="1" tooltips="1" connect="1" arrows="1" fold="1" page="1" pageScale="1" pageWidth="827" pageHeight="1169" math="0" shadow="0">
      <root>
        <mxCell id="0" />
        <mxCell id="1" parent="0" />
        <mxCell id="hSa-tMD5gzLTI7g2pg_K-9" value="" style="edgeStyle=orthogonalEdgeStyle;rounded=0;orthogonalLoop=1;jettySize=auto;html=1;" edge="1" parent="1" source="hSa-tMD5gzLTI7g2pg_K-5" target="hSa-tMD5gzLTI7g2pg_K-10">
          <mxGeometry relative="1" as="geometry">
            <mxPoint x="362" y="72.5" as="targetPoint" />
          </mxGeometry>
        </mxCell>
        <mxCell id="hSa-tMD5gzLTI7g2pg_K-5" value="Servidor 22" style="image;aspect=fixed;html=1;points=[];align=center;fontSize=12;image=img/lib/azure2/databases/SQL_Database.svg;" vertex="1" parent="1">
          <mxGeometry x="240" y="36.5" width="54" height="72" as="geometry" />
        </mxCell>
        <mxCell id="hSa-tMD5gzLTI7g2pg_K-7" style="edgeStyle=orthogonalEdgeStyle;rounded=0;orthogonalLoop=1;jettySize=auto;html=1;" edge="1" parent="1" source="hSa-tMD5gzLTI7g2pg_K-6" target="hSa-tMD5gzLTI7g2pg_K-5">
          <mxGeometry relative="1" as="geometry" />
        </mxCell>
        <mxCell id="hSa-tMD5gzLTI7g2pg_K-6" value="Servidores DataByte" style="image;aspect=fixed;html=1;points=[];align=center;fontSize=12;image=img/lib/azure2/general/Server_Farm.svg;" vertex="1" parent="1">
          <mxGeometry x="60" y="32.5" width="80" height="80" as="geometry" />
        </mxCell>
        <mxCell id="hSa-tMD5gzLTI7g2pg_K-12" value="" style="edgeStyle=orthogonalEdgeStyle;rounded=0;orthogonalLoop=1;jettySize=auto;html=1;" edge="1" parent="1" source="hSa-tMD5gzLTI7g2pg_K-10" target="hSa-tMD5gzLTI7g2pg_K-11">
          <mxGeometry relative="1" as="geometry" />
        </mxCell>
        <mxCell id="hSa-tMD5gzLTI7g2pg_K-14" value="" style="edgeStyle=orthogonalEdgeStyle;rounded=0;orthogonalLoop=1;jettySize=auto;html=1;" edge="1" parent="1" source="hSa-tMD5gzLTI7g2pg_K-10" target="hSa-tMD5gzLTI7g2pg_K-13">
          <mxGeometry relative="1" as="geometry" />
        </mxCell>
        <mxCell id="hSa-tMD5gzLTI7g2pg_K-10" value="JOBs SP" style="shape=note;whiteSpace=wrap;html=1;backgroundOutline=1;darkOpacity=0.05;" vertex="1" parent="1">
          <mxGeometry x="400" y="30" width="70" height="85" as="geometry" />
        </mxCell>
        <mxCell id="hSa-tMD5gzLTI7g2pg_K-20" style="edgeStyle=orthogonalEdgeStyle;rounded=0;orthogonalLoop=1;jettySize=auto;html=1;" edge="1" parent="1" source="hSa-tMD5gzLTI7g2pg_K-11" target="hSa-tMD5gzLTI7g2pg_K-18">
          <mxGeometry relative="1" as="geometry" />
        </mxCell>
        <mxCell id="hSa-tMD5gzLTI7g2pg_K-11" value="Genera Archivo Destacame.CSV" style="rounded=1;whiteSpace=wrap;html=1;" vertex="1" parent="1">
          <mxGeometry x="570" y="42.5" width="120" height="60" as="geometry" />
        </mxCell>
        <mxCell id="hSa-tMD5gzLTI7g2pg_K-19" style="edgeStyle=orthogonalEdgeStyle;rounded=0;orthogonalLoop=1;jettySize=auto;html=1;" edge="1" parent="1" source="hSa-tMD5gzLTI7g2pg_K-13" target="hSa-tMD5gzLTI7g2pg_K-18">
          <mxGeometry relative="1" as="geometry" />
        </mxCell>
        <mxCell id="hSa-tMD5gzLTI7g2pg_K-13" value="Genera Exportación_tabla.csv&amp;nbsp;" style="rounded=1;whiteSpace=wrap;html=1;" vertex="1" parent="1">
          <mxGeometry x="367.5" y="210" width="135" height="60" as="geometry" />
        </mxCell>
        <mxCell id="hSa-tMD5gzLTI7g2pg_K-23" style="edgeStyle=orthogonalEdgeStyle;rounded=0;orthogonalLoop=1;jettySize=auto;html=1;" edge="1" parent="1" source="hSa-tMD5gzLTI7g2pg_K-18" target="hSa-tMD5gzLTI7g2pg_K-21">
          <mxGeometry relative="1" as="geometry" />
        </mxCell>
        <mxCell id="hSa-tMD5gzLTI7g2pg_K-18" value="Se almacena" style="rhombus;whiteSpace=wrap;html=1;" vertex="1" parent="1">
          <mxGeometry x="590" y="200" width="80" height="80" as="geometry" />
        </mxCell>
        <mxCell id="hSa-tMD5gzLTI7g2pg_K-28" style="edgeStyle=orthogonalEdgeStyle;rounded=0;orthogonalLoop=1;jettySize=auto;html=1;" edge="1" parent="1" source="hSa-tMD5gzLTI7g2pg_K-21" target="hSa-tMD5gzLTI7g2pg_K-27">
          <mxGeometry relative="1" as="geometry" />
        </mxCell>
        <mxCell id="hSa-tMD5gzLTI7g2pg_K-21" value="Carpeta Interna del servidor" style="sketch=0;pointerEvents=1;shadow=0;dashed=0;html=1;strokeColor=none;labelPosition=center;verticalLabelPosition=bottom;verticalAlign=top;outlineConnect=0;align=center;shape=mxgraph.office.concepts.folder;fillColor=#2072B8;" vertex="1" parent="1">
          <mxGeometry x="593.75" y="330" width="72.5" height="60" as="geometry" />
        </mxCell>
        <mxCell id="hSa-tMD5gzLTI7g2pg_K-26" value="SFTP" style="sketch=0;aspect=fixed;pointerEvents=1;shadow=0;dashed=0;html=1;strokeColor=none;labelPosition=center;verticalLabelPosition=bottom;verticalAlign=top;align=center;fillColor=#00188D;shape=mxgraph.mscae.enterprise.shared_folder" vertex="1" parent="1">
          <mxGeometry x="595.6" y="560" width="68.8" height="80" as="geometry" />
        </mxCell>
        <mxCell id="hSa-tMD5gzLTI7g2pg_K-31" style="edgeStyle=orthogonalEdgeStyle;rounded=0;orthogonalLoop=1;jettySize=auto;html=1;" edge="1" parent="1" source="hSa-tMD5gzLTI7g2pg_K-27" target="hSa-tMD5gzLTI7g2pg_K-30">
          <mxGeometry relative="1" as="geometry" />
        </mxCell>
        <mxCell id="hSa-tMD5gzLTI7g2pg_K-27" value="Se &lt;br&gt;comparte" style="rhombus;whiteSpace=wrap;html=1;" vertex="1" parent="1">
          <mxGeometry x="590.5" y="440" width="80" height="80" as="geometry" />
        </mxCell>
        <mxCell id="hSa-tMD5gzLTI7g2pg_K-29" style="edgeStyle=orthogonalEdgeStyle;rounded=0;orthogonalLoop=1;jettySize=auto;html=1;entryX=0.5;entryY=0.07;entryDx=0;entryDy=0;entryPerimeter=0;" edge="1" parent="1" source="hSa-tMD5gzLTI7g2pg_K-27" target="hSa-tMD5gzLTI7g2pg_K-26">
          <mxGeometry relative="1" as="geometry" />
        </mxCell>
        <mxCell id="hSa-tMD5gzLTI7g2pg_K-30" value="ACL usuarios y red SCF" style="rounded=0;whiteSpace=wrap;html=1;" vertex="1" parent="1">
          <mxGeometry x="700" y="450" width="120" height="60" as="geometry" />
        </mxCell>
        <mxCell id="hSa-tMD5gzLTI7g2pg_K-33" style="edgeStyle=orthogonalEdgeStyle;rounded=0;orthogonalLoop=1;jettySize=auto;html=1;entryX=1;entryY=0.5;entryDx=0;entryDy=0;entryPerimeter=0;" edge="1" parent="1" source="hSa-tMD5gzLTI7g2pg_K-30" target="hSa-tMD5gzLTI7g2pg_K-26">
          <mxGeometry relative="1" as="geometry">
            <Array as="points">
              <mxPoint x="760" y="600" />
            </Array>
          </mxGeometry>
        </mxCell>
        <mxCell id="hSa-tMD5gzLTI7g2pg_K-34" value="Computador Rodrigo" style="image;aspect=fixed;perimeter=ellipsePerimeter;html=1;align=center;shadow=0;dashed=0;spacingTop=3;image=img/lib/active_directory/workstation_client.svg;" vertex="1" parent="1">
          <mxGeometry x="160" y="630" width="74.38" height="87.5" as="geometry" />
        </mxCell>
        <mxCell id="hSa-tMD5gzLTI7g2pg_K-36" value="Ejecuta" style="rhombus;whiteSpace=wrap;html=1;" vertex="1" parent="1">
          <mxGeometry x="260" y="330" width="80" height="80" as="geometry" />
        </mxCell>
        <mxCell id="hSa-tMD5gzLTI7g2pg_K-37" value="Tarea Programada" style="shape=note;whiteSpace=wrap;html=1;backgroundOutline=1;darkOpacity=0.05;" vertex="1" parent="1">
          <mxGeometry x="170" y="495" width="70" height="90" as="geometry" />
        </mxCell>
      </root>
    </mxGraphModel>
  </diagram>
</mxfile>
